<svg width="95" height="32" viewBox="0 0 95 32" fill="none" xmlns="http://www.w3.org/2000/svg">
<g clip-path="url(#clip0_2_112)">
<path fill-rule="evenodd" clip-rule="evenodd" d="M4.05518 0C1.81557 0 0 1.81556 0 4.05517V28.0483C0 30.2879 1.81556 32.1034 4.05517 32.1034H90.5655C92.8051 32.1034 94.6207 30.2879 94.6207 28.0483V4.05517C94.6207 1.81556 92.8051 0 90.5655 0H4.05518Z" fill="black"/>
<path fill-rule="evenodd" clip-rule="evenodd" d="M60.2006 22.7852C60.7602 22.2806 61.0389 21.627 61.0389 20.8237C61.0389 20.1708 60.8481 19.6237 60.4658 19.1865C60.0821 18.748 59.4857 18.3655 58.6736 18.0383C58.0097 17.7765 57.5523 17.5338 57.3005 17.3095C57.0111 17.0668 56.8671 16.7581 56.8671 16.3848C56.8671 16.0477 56.9934 15.7632 57.2452 15.5297C57.5431 15.2685 57.9587 15.1373 58.4906 15.1373C59.1637 15.1373 59.7651 15.282 60.297 15.5716L60.675 14.3382C60.1055 14.0394 59.392 13.8897 58.5331 13.8897C57.57 13.8897 56.7998 14.1373 56.2225 14.6334C55.643 15.1287 55.3536 15.7653 55.3536 16.5417C55.3536 17.7296 56.1792 18.633 57.8317 19.2497C58.4388 19.4747 58.8736 19.7181 59.1339 19.9799C59.3956 20.2418 59.5261 20.5647 59.5261 20.9479C59.5261 21.378 59.3679 21.7229 59.0509 21.9797C58.7324 22.2366 58.2892 22.3658 57.7197 22.3658C56.926 22.3658 56.1976 22.1643 55.5338 21.7626L55.1834 23.0237C55.7997 23.4161 56.6139 23.612 57.6296 23.612C58.7296 23.612 59.5857 23.3366 60.2006 22.7852ZM35.0346 23.4728H36.6453L33.592 14.0287H31.7154L28.677 23.4728H30.2451L31.0856 20.6988H34.1523L35.0346 23.4728ZM33.0884 17.0682L33.8863 19.5342H31.3522L32.1359 17.0682C32.3416 16.284 32.4913 15.6907 32.5842 15.2891H32.6125C32.8459 16.223 33.004 16.8163 33.0884 17.0682ZM43.5206 22.7291C44.1462 22.0571 44.459 21.1416 44.459 19.9835C44.459 18.9467 44.1909 18.1107 43.6533 17.4748C43.1171 16.8397 42.4469 16.5225 41.644 16.5225C40.617 16.5225 39.8518 16.9284 39.3475 17.7417H39.3191L39.2347 16.6623H37.9049C37.9418 17.4287 37.9609 18.176 37.9609 18.9041V26.2469H39.473V22.6596H39.5014C39.8936 23.304 40.5376 23.6261 41.4341 23.6261C42.2646 23.6261 42.9603 23.3274 43.5206 22.7291ZM42.9185 20.0388C42.9185 19.376 42.7695 18.8296 42.4702 18.3995C42.1433 17.951 41.7043 17.7268 41.1539 17.7268C40.7808 17.7268 40.4418 17.8517 40.139 18.0979C39.8354 18.3463 39.6368 18.6706 39.5439 19.0723C39.4971 19.2596 39.4737 19.4129 39.4737 19.5335V20.669C39.4737 21.1643 39.6255 21.5823 39.929 21.9237C40.2326 22.265 40.6269 22.4353 41.1121 22.4353C41.6816 22.4353 42.1248 22.2153 42.4419 21.7768C42.7596 21.3375 42.9185 20.7584 42.9185 20.0388ZM51.3477 22.7291C51.974 22.0571 52.2868 21.1416 52.2868 19.9835C52.2868 18.9467 52.018 18.1107 51.4825 17.4748C50.9449 16.8397 50.2747 16.5225 49.4725 16.5225C48.4448 16.5225 47.6796 16.9284 47.176 17.7417H47.1476L47.0632 16.6623H45.7334C45.7703 17.4287 45.7894 18.176 45.7894 18.9041V26.2469H47.3015V22.6596H47.3299C47.7214 23.304 48.3654 23.6261 49.2619 23.6261C50.0924 23.6261 50.7882 23.3274 51.3477 22.7291ZM50.7463 20.0388C50.7463 19.376 50.5966 18.8296 50.2973 18.3995C49.9704 17.951 49.5328 17.7268 48.9817 17.7268C48.6079 17.7268 48.2696 17.8517 47.9661 18.0979C47.6625 18.3463 47.4646 18.6706 47.3717 19.0723C47.3256 19.2596 47.3015 19.4129 47.3015 19.5335V20.669C47.3015 21.1643 47.4533 21.5823 47.7554 21.9237C48.059 22.2643 48.4533 22.4353 48.9398 22.4353C49.5094 22.4353 49.9526 22.2153 50.2697 21.7768C50.5874 21.3375 50.7463 20.7584 50.7463 20.0388ZM66.0383 17.7977H64.3716V21.104C64.3716 21.945 64.6652 22.3651 65.2539 22.3651C65.5241 22.3651 65.7482 22.3417 65.9255 22.2948L65.9674 23.4438C65.6695 23.5552 65.2773 23.6112 64.7915 23.6112C64.1943 23.6112 63.7276 23.4288 63.3907 23.0648C63.0553 22.7 62.8865 22.0883 62.8865 21.2289V17.7963H61.8935V16.6609H62.8865V15.414L64.3716 14.9655V16.6609H66.0383V17.7977ZM72.6619 22.5894C73.259 21.9173 73.5583 21.0579 73.5583 20.0112C73.5583 18.9928 73.269 18.1618 72.6888 17.5182C72.0824 16.8546 71.2789 16.5232 70.2802 16.5232C69.244 16.5232 68.4199 16.8596 67.8093 17.5323C67.1972 18.2044 66.8922 19.0688 66.8922 20.124C66.8922 21.1324 67.1887 21.9691 67.7816 22.6319C68.3745 23.2947 69.1696 23.6262 70.1682 23.6262C71.2044 23.6262 72.0356 23.2813 72.6619 22.5894ZM71.9895 20.0601C71.9895 19.4321 71.8554 18.8934 71.5838 18.4442C71.2668 17.9006 70.8136 17.6295 70.2263 17.6295C69.6185 17.6295 69.1568 17.9013 68.8398 18.4442C68.5681 18.8941 68.4341 19.4413 68.4341 20.0885C68.4341 20.7165 68.5681 21.2552 68.8398 21.7037C69.1667 22.2473 69.6235 22.5183 70.2128 22.5183C70.7902 22.5183 71.2434 22.2416 71.5703 21.6895C71.8491 21.2317 71.9895 20.6874 71.9895 20.0601ZM77.9967 17.951C78.1641 17.951 78.3236 17.9652 78.4733 17.9929V16.5502C78.3612 16.5324 78.235 16.5225 78.0953 16.5225C77.7031 16.5225 77.3392 16.6438 77.0023 16.8873C76.6576 17.1576 76.4059 17.5181 76.2463 17.9659H76.2044L76.1491 16.663H74.8321C74.8697 17.3074 74.8888 18.022 74.8888 18.8069L74.8746 23.4721H76.386V19.899C76.386 19.3576 76.5123 18.9091 76.764 18.5542C77.0534 18.1519 77.4648 17.951 77.9967 17.951ZM85.2359 19.745C85.2359 20.0161 85.2182 20.2446 85.1806 20.4313H80.6443C80.662 21.104 80.8812 21.6185 81.3025 21.9734C81.6847 22.2906 82.1791 22.4495 82.7862 22.4495C83.4578 22.4495 84.0706 22.3424 84.6217 22.1273L84.8586 23.1776C84.2146 23.4587 83.4543 23.5985 82.577 23.5985C81.5216 23.5985 80.6932 23.2876 80.0904 22.6667C79.4889 22.0457 79.1875 21.2119 79.1875 20.1659C79.1875 19.139 79.4677 18.2839 80.0287 17.6019C80.6159 16.8738 81.4096 16.5097 82.4082 16.5097C83.389 16.5097 84.1316 16.8738 84.6359 17.6019C85.0352 18.1802 85.2359 18.8956 85.2359 19.745ZM83.5003 18.1895C83.7053 18.5166 83.8039 18.9041 83.794 19.3526V19.3519H80.6442C80.6903 18.8949 80.84 18.5024 81.0918 18.1753C81.3989 17.7637 81.801 17.5586 82.2953 17.5586C82.8365 17.5586 83.2386 17.7687 83.5003 18.1895Z" fill="white"/>
<path fill-rule="evenodd" clip-rule="evenodd" d="M48.274 5.76767H49.0166V10.648H48.274V5.76767ZM32.636 10.1044C33.136 9.68212 33.3864 9.05337 33.3864 8.2181C33.3864 7.47438 33.1545 6.90311 32.6921 6.50357C32.2793 6.15017 31.6672 5.97346 30.8551 5.97346C30.3955 5.97346 29.97 6.00611 29.575 6.06998V10.6338C29.8778 10.6707 30.2395 10.6891 30.6622 10.6891C31.5147 10.6891 32.1729 10.494 32.636 10.1044ZM32.1728 6.99254C32.4593 7.28208 32.6026 7.69723 32.6026 8.23869C32.6026 8.84474 32.4466 9.30601 32.1373 9.62252C31.8281 9.93903 31.3891 10.0973 30.8203 10.0973C30.577 10.0973 30.4096 10.0909 30.3182 10.0767V6.6072C30.4834 6.57455 30.6827 6.55894 30.9167 6.55894C31.4678 6.55894 31.8863 6.70371 32.1728 6.99254ZM37.5418 8.94762C37.5418 9.46212 37.395 9.88366 37.1013 10.2144C36.7935 10.5543 36.3857 10.7239 35.8765 10.7239C35.3857 10.7239 34.9949 10.5614 34.7034 10.2349C34.4126 9.9092 34.2672 9.49831 34.2672 9.00297C34.2672 8.48493 34.4169 8.05984 34.7176 7.72985C35.0183 7.39986 35.4226 7.23451 35.9318 7.23451C36.4226 7.23451 36.8169 7.39702 37.1155 7.72276C37.3992 8.03926 37.5418 8.44802 37.5418 8.94762ZM36.5716 8.17766C36.7042 8.39837 36.7708 8.66307 36.7708 8.97177C36.7708 9.28047 36.7021 9.5473 36.5645 9.77226C36.4042 10.0441 36.1815 10.1796 35.8978 10.1796C35.6084 10.1796 35.3843 10.0462 35.2233 9.77936C35.0907 9.55865 35.024 9.29395 35.024 8.98525C35.024 8.66733 35.09 8.39837 35.2233 8.17766C35.3793 7.91083 35.6063 7.77742 35.9049 7.77742C36.1935 7.77742 36.4155 7.91083 36.5716 8.17766ZM43.1136 7.30263L43.1133 7.30334H42.3837L41.9781 8.866C41.8774 9.25631 41.8015 9.6232 41.7511 9.96738H41.7305C41.6617 9.61398 41.5724 9.24708 41.4624 8.866L41.0078 7.30334H40.4021L39.9277 8.90006C39.7986 9.33082 39.7071 9.68707 39.6518 9.96667H39.6383C39.578 9.62746 39.5028 9.26908 39.4113 8.89297L39.0333 7.30263H38.2695L39.2532 10.6479H39.9418L40.4021 9.19528C40.517 8.84187 40.6064 8.48208 40.6709 8.11447H40.6844C40.7539 8.47214 40.8433 8.83265 40.9532 9.19528L41.3866 10.6479H42.0674L43.1133 7.30334H43.1136V7.30263ZM46.2236 10.6479H46.9669V8.64388C46.9669 8.1528 46.8385 7.78307 46.5817 7.5354C46.3754 7.33315 46.1158 7.23238 45.8037 7.23238C45.5569 7.23238 45.3314 7.29554 45.1299 7.42044C44.9604 7.52759 44.8313 7.66172 44.7448 7.82423H44.7243L44.6895 7.30121H44.0363C44.054 7.64611 44.0632 7.96474 44.0632 8.25854V10.6472H44.8065V8.66304C44.8065 8.44376 44.876 8.25215 45.0129 8.08964C45.1512 7.92713 45.3292 7.84623 45.5498 7.84623C45.9995 7.84623 46.2236 8.14145 46.2236 8.73188V10.6479ZM52.9522 10.2143C53.2458 9.88364 53.3927 9.46211 53.3927 8.94761C53.3927 8.44801 53.2501 8.03925 52.9664 7.72274C52.6671 7.39701 52.2735 7.2345 51.782 7.2345C51.2735 7.2345 50.8692 7.39985 50.5685 7.72984C50.2678 8.05983 50.1181 8.48491 50.1181 9.00296C50.1181 9.4983 50.2635 9.90919 50.5543 10.2349C50.8451 10.5614 51.2359 10.7239 51.7274 10.7239C52.2359 10.7239 52.6444 10.5543 52.9522 10.2143ZM52.6208 8.97176C52.6208 8.66306 52.5542 8.39836 52.4216 8.17765C52.2662 7.91082 52.0435 7.77741 51.7556 7.77741C51.4563 7.77741 51.2293 7.91082 51.074 8.17765C50.9407 8.39836 50.8747 8.66731 50.8747 8.98524C50.8747 9.29394 50.9414 9.55864 51.074 9.77934C51.235 10.0462 51.4591 10.1796 51.7485 10.1796C52.0322 10.1796 52.2542 10.044 52.4145 9.77225C52.5528 9.54729 52.6208 9.28046 52.6208 8.97176ZM56.3224 10.6479H56.9898C56.9578 10.4507 56.9415 10.1845 56.9415 9.85029V8.61833C56.9415 7.69578 56.5032 7.2345 55.6294 7.2345C55.1769 7.2345 54.7933 7.33101 54.4826 7.52333L54.6337 8.01157C54.8847 7.84693 55.1755 7.7639 55.5053 7.7639C55.9685 7.7639 56.1997 7.9839 56.1997 8.42459V8.48704C55.5805 8.48207 55.0996 8.58781 54.7578 8.80355C54.4152 9.01928 54.245 9.33082 54.245 9.73958C54.245 10.01 54.3322 10.2378 54.5067 10.4209C54.6989 10.6224 54.9542 10.7239 55.2699 10.7239C55.6926 10.7239 56.0181 10.5699 56.2465 10.2626H56.267L56.3224 10.6479ZM56.2182 9.49832V8.9824C55.3983 8.96821 54.9884 9.19317 54.9884 9.65657C54.9884 9.83115 55.0352 9.96173 55.1309 10.049C55.2267 10.1363 55.3487 10.1796 55.4941 10.1796C55.6572 10.1796 55.8097 10.1278 55.9487 10.0249C56.0884 9.92128 56.1742 9.78999 56.2061 9.6289C56.2139 9.59271 56.2182 9.54871 56.2182 9.49832ZM60.5537 10.648H61.2133C61.1955 10.3726 61.187 10.0724 61.187 9.74671V5.76767H60.443V7.688H60.4288C60.2501 7.38498 59.9359 7.23382 59.487 7.23382C59.0785 7.23382 58.7352 7.38994 58.455 7.70219C58.1657 8.03715 58.0217 8.47572 58.0217 9.01718C58.0217 9.52175 58.1543 9.93264 58.4203 10.2491C58.6863 10.5656 59.0217 10.7239 59.4246 10.7239C59.9288 10.7239 60.2877 10.5195 60.4984 10.1108H60.5189L60.5537 10.648ZM60.4431 9.23718V8.67939C60.4431 8.58287 60.436 8.50481 60.4226 8.4452C60.3807 8.26637 60.2906 8.11592 60.1537 7.99457C60.0154 7.87322 59.8488 7.81219 59.6566 7.81219C59.3793 7.81219 59.1622 7.92219 59.0027 8.14289C58.8445 8.36359 58.7644 8.64532 58.7644 8.98951C58.7644 9.32021 58.8402 9.58846 58.9927 9.79497C59.1537 10.015 59.3707 10.125 59.6424 10.125C59.8864 10.125 60.0814 10.0334 60.2296 9.84961C60.3729 9.68 60.4431 9.47562 60.4431 9.23718ZM67.1297 10.2143C67.4234 9.88364 67.5702 9.46211 67.5702 8.94761C67.5702 8.44801 67.4276 8.03925 67.1439 7.72274C66.8461 7.39701 66.451 7.2345 65.9609 7.2345C65.451 7.2345 65.0467 7.39985 64.746 7.72984C64.4453 8.05983 64.2956 8.48491 64.2956 9.00296C64.2956 9.4983 64.441 9.90919 64.7318 10.2349C65.024 10.5614 65.4148 10.7239 65.9049 10.7239C66.4148 10.7239 66.8219 10.5543 67.1297 10.2143ZM66.8 8.97176C66.8 8.66306 66.7333 8.39836 66.6007 8.17765C66.4439 7.91082 66.2226 7.77741 65.9333 7.77741C65.6354 7.77741 65.4084 7.91082 65.2517 8.17765C65.1184 8.39836 65.0524 8.66731 65.0524 8.98524C65.0524 9.29394 65.1191 9.55864 65.2517 9.77934C65.4127 10.0462 65.6368 10.1796 65.9262 10.1796C66.2099 10.1796 66.4333 10.044 66.5936 9.77225C66.7305 9.54729 66.8 9.28046 66.8 8.97176ZM70.8241 10.6479H71.5667V8.64388C71.5667 8.1528 71.439 7.78307 71.1816 7.5354C70.9752 7.33315 70.7156 7.23238 70.4043 7.23238C70.1567 7.23238 69.9319 7.29554 69.7298 7.42044C69.561 7.52759 69.4319 7.66172 69.3447 7.82423H69.3241L69.2893 7.30121H68.6368C68.6546 7.64611 68.6631 7.96474 68.6631 8.25854V10.6472H69.4071V8.66304C69.4071 8.44376 69.4759 8.25215 69.6135 8.08964C69.7511 7.92713 69.9291 7.84623 70.1497 7.84623C70.6 7.84623 70.8241 8.14145 70.8241 8.73188V10.6479ZM76.5683 7.85972H75.7505V9.48483C75.7505 9.89785 75.8959 10.1044 76.1839 10.1044C76.3172 10.1044 76.4278 10.093 76.5151 10.0696L76.5342 10.6338C76.3874 10.6891 76.1945 10.7168 75.9569 10.7168C75.6633 10.7168 75.4349 10.6274 75.2697 10.4485C75.1037 10.2697 75.0214 9.96881 75.0214 9.54657V7.85972H74.5328V7.30264H75.0214V6.6895L75.7498 6.4695V7.30193H76.5683V7.85972ZM79.7599 10.648H80.5039V8.65881C80.5039 8.16347 80.3777 7.78877 80.1259 7.53684C79.9237 7.33459 79.6691 7.23382 79.3613 7.23382C78.9266 7.23382 78.5911 7.41691 78.357 7.7838H78.3429V5.76767H77.6003V10.6473H78.3429V8.63539C78.3429 8.53036 78.3556 8.44094 78.3776 8.36785C78.5067 8.02012 78.7422 7.84625 79.0868 7.84625C79.5358 7.84625 79.7599 8.14644 79.7599 8.74609V10.648ZM84.5628 8.81705C84.5628 8.95046 84.5529 9.06259 84.5351 9.15413H82.306C82.3159 9.48483 82.4223 9.73676 82.6287 9.91134C82.8174 10.0675 83.0606 10.1455 83.3585 10.1455C83.6883 10.1455 83.989 10.093 84.26 9.98727L84.3763 10.5039C84.0592 10.6416 83.6862 10.7104 83.2543 10.7104C82.7365 10.7104 82.3287 10.5578 82.0337 10.2527C81.7372 9.94753 81.5904 9.53806 81.5904 9.02427C81.5904 8.5197 81.7273 8.09959 82.0032 7.76463C82.2911 7.40696 82.6805 7.22813 83.172 7.22813C83.6528 7.22813 84.0181 7.40696 84.2649 7.76463C84.4642 8.04849 84.5628 8.39977 84.5628 8.81705ZM83.7096 8.05346C83.8103 8.21384 83.8592 8.40403 83.8536 8.62473H82.306C82.3301 8.39977 82.4032 8.20746 82.5266 8.04637C82.6776 7.84411 82.8755 7.74334 83.1181 7.74334C83.384 7.74334 83.5805 7.84695 83.7096 8.05346Z" fill="white"/>
<path fill-rule="evenodd" clip-rule="evenodd" d="M18.4097 5.74481C18.5285 6.82419 18.1007 7.88783 17.4756 8.66965C16.8232 9.43931 15.7796 10.028 14.7632 9.95217C14.6301 8.91357 15.1451 7.80915 15.7217 7.13534C16.3733 6.37069 17.5049 5.78487 18.4097 5.74481ZM21.7372 11.9714C21.6238 12.0391 19.744 13.161 19.7645 15.4492C19.7881 18.2124 22.1815 19.1258 22.2109 19.1358C22.1965 19.2002 21.836 20.4541 20.9383 21.7273C20.1887 22.8482 19.4033 23.944 18.1558 23.9641C17.5628 23.9777 17.1623 23.8072 16.7451 23.6295C16.3098 23.4441 15.8562 23.2509 15.1466 23.2509C14.3943 23.2509 13.9206 23.4503 13.4637 23.6426C13.0687 23.8088 12.6863 23.9697 12.1474 23.992C10.9593 24.0356 10.0516 22.7953 9.27476 21.6844C7.72185 19.4162 6.513 15.2925 8.13386 12.4864C8.91925 11.1102 10.3513 10.224 11.882 10.2004C12.5561 10.1866 13.2026 10.4464 13.7693 10.6741C14.2027 10.8482 14.5895 11.0036 14.9063 11.0036C15.1845 11.0036 15.5604 10.8545 15.9985 10.6806C16.689 10.4065 17.534 10.0712 18.3948 10.1617C18.9834 10.1789 20.6587 10.3942 21.7395 11.97L21.7372 11.9714Z" fill="white"/>
</g>
<defs>
<clipPath id="clip0_2_112">
<rect width="94.3158" height="32" fill="white"/>
</clipPath>
</defs>
</svg>
