<svg width="95" height="32" viewBox="0 0 95 32" fill="none" xmlns="http://www.w3.org/2000/svg">
<g clip-path="url(#clip0_2_64)">
<path fill-rule="evenodd" clip-rule="evenodd" d="M4.37098 0C2.13137 0 0.315796 1.81556 0.315796 4.05517V28.0483C0.315796 30.2879 2.13136 32.1034 4.37097 32.1034H90.8813C93.1209 32.1034 94.9365 30.2879 94.9365 28.0483V4.05517C94.9365 1.81556 93.1209 0 90.8813 0H4.37098Z" fill="black"/>
<g clip-path="url(#clip1_2_64)">
<path fill-rule="evenodd" clip-rule="evenodd" d="M7.97937 13.0971C7.7128 13.1812 7.54028 13.4533 7.54028 13.865L7.54193 26.8231C7.54193 27.2302 7.7091 27.4982 7.96828 27.5877L15.1583 20.3366L7.97937 13.0971Z" fill="url(#paint0_linear_2_64)"/>
<path fill-rule="evenodd" clip-rule="evenodd" d="M7.96753 27.5882C8.15401 27.652 8.38772 27.6222 8.64238 27.4813L17.4167 22.6152L15.1576 20.3371L7.96753 27.5882Z" fill="url(#paint1_linear_2_64)"/>
<path fill-rule="evenodd" clip-rule="evenodd" d="M17.4179 22.6152L20.4098 20.9563C21.0164 20.6188 21.0164 20.0695 20.4098 19.7328L17.4068 18.0677L15.1576 20.3359L17.4179 22.6152Z" fill="url(#paint2_linear_2_64)"/>
<path fill-rule="evenodd" clip-rule="evenodd" d="M17.4064 18.0676L8.64235 13.2082C8.39385 13.0711 8.16466 13.0392 7.979 13.0976L15.1576 20.3358L17.4064 18.0676Z" fill="url(#paint3_linear_2_64)"/>
</g>
<path fill-rule="evenodd" clip-rule="evenodd" d="M57.6817 23.435C57.2262 23.3923 57.1301 23.3078 57.1301 22.7648L57.1334 14.8373C57.1884 14.3481 57.317 14.1953 57.7466 13.9442H55.7644L54.726 14.4487H55.8046L55.81 22.7594V23.0713C55.81 23.3237 55.765 23.3821 55.5196 23.7007L55.5194 23.701C55.4934 23.7347 55.4652 23.7714 55.4345 23.8115H57.8772L58.3898 23.5037C58.2717 23.4895 58.153 23.4793 58.0338 23.4691C57.9168 23.459 57.7994 23.4489 57.6817 23.435ZM33.1103 23.507L31.2521 23.9362C30.4992 24.0559 29.8231 24.1611 29.1072 24.1611C25.5231 24.1611 24.1573 21.5006 24.1573 19.4184C24.1573 16.8756 26.0924 14.5179 29.4062 14.5179C30.1074 14.5179 30.7818 14.6219 31.3963 14.7909C32.3254 15.0541 32.7827 15.3757 33.0699 15.5777L33.1103 15.606L32.0309 16.6399L31.5758 16.7426L31.9003 16.2211L31.8974 16.2183C31.4573 15.7848 30.6495 14.9893 29.1195 14.9893C27.0695 14.9893 25.5231 16.5608 25.5231 18.8551C25.5231 21.3192 27.2889 23.6371 30.1209 23.6371C30.9531 23.6371 31.3815 23.4685 31.7705 23.3111V21.1987L29.8083 21.3051L30.8483 20.7418H33.602L33.2652 21.0686C33.1744 21.1465 33.1621 21.173 33.1366 21.2774C33.123 21.3967 33.1103 21.7761 33.1103 21.9094V23.507ZM37.3718 23.9921C35.1681 23.9921 33.9913 22.2619 33.9913 20.6954C33.9913 18.865 35.4737 17.2989 37.5808 17.2989C39.6173 17.2989 40.8922 18.9077 40.8922 20.5968C40.8922 22.2466 39.6325 23.9921 37.3718 23.9921ZM39.5212 21.3113C39.5212 21.8556 39.4383 22.4139 39.1056 22.8613C38.7856 23.3078 38.2332 23.5725 37.6922 23.5725C36.0151 23.5725 35.3354 21.2947 35.3354 19.9138C35.3354 19.3107 35.4315 18.696 35.9737 18.2068C36.3064 17.9127 36.7619 17.7326 37.2207 17.7326C38.938 17.7326 39.5212 20.0803 39.5212 21.3113ZM44.7484 23.9921C42.5452 23.9921 41.3663 22.2619 41.3663 20.6954C41.3663 18.865 42.8483 17.2989 44.9562 17.2989C46.9939 17.2989 48.2701 18.9077 48.2701 20.5968C48.2701 22.2466 47.0087 23.9921 44.7484 23.9921ZM46.8982 21.3113C46.8982 21.8556 46.8169 22.4139 46.4817 22.8613C46.1625 23.3078 45.6093 23.5725 45.0671 23.5725C43.3872 23.5725 42.7103 21.2947 42.7103 19.9138C42.7103 19.3107 42.8068 18.696 43.3481 18.2068C43.68 17.9127 44.1405 17.7326 44.5976 17.7326C46.3166 17.7326 46.8982 20.0803 46.8982 21.3113ZM53.3419 17.9848C53.6602 18.2487 54.3244 18.8087 54.3244 19.8707C54.3244 20.9058 53.7456 21.3937 53.162 21.8556L53.1371 21.8808C52.9641 22.0558 52.7734 22.2486 52.7734 22.5394C52.7734 22.843 52.9751 23.0103 53.1251 23.1346L53.1336 23.1417L53.6343 23.5315C54.243 24.0496 54.798 24.5247 54.798 25.4898C54.798 26.8045 53.5362 28.1304 51.1518 28.1304C49.1433 28.1304 48.1723 27.1657 48.1723 26.1314C48.1723 25.6282 48.4208 24.9153 49.2406 24.427C50.0885 23.9042 51.2332 23.8283 51.8624 23.7866L51.8874 23.785L51.8584 23.7473C51.6714 23.5048 51.4705 23.2446 51.4705 22.8327C51.4705 22.6207 51.5271 22.4853 51.5878 22.3399L51.6094 22.288L51.5997 22.2889L51.5996 22.2889C51.4513 22.3031 51.302 22.3174 51.1662 22.3174C49.6961 22.3174 48.8652 21.2115 48.8652 20.1217C48.8652 19.4789 49.156 18.7656 49.7532 18.2487C50.5435 17.5926 51.4857 17.4795 52.2345 17.4795H55.0908L54.2028 17.9848H53.3419ZM52.0407 24.1751C52.1778 24.1751 52.246 24.1751 52.3598 24.1901C53.4113 24.946 53.8685 25.3221 53.8685 26.0349C53.8685 26.901 53.162 27.5443 51.8312 27.5443C50.35 27.5443 49.3926 26.8298 49.3926 25.839C49.3926 24.8462 50.2794 24.5119 50.5862 24.3988C51.1662 24.2025 51.915 24.1751 52.0407 24.1751ZM52.7582 21.5341C53.0786 21.2115 53.1065 20.7658 53.1065 20.5127C53.1065 19.5074 52.5122 17.9417 51.36 17.9417C51.0006 17.9417 50.6112 18.1236 50.3903 18.4048C50.1557 18.696 50.0855 19.0738 50.0855 19.437C50.0855 20.3731 50.6269 21.9256 51.8176 21.9256C52.1651 21.9256 52.5389 21.7553 52.7582 21.5341ZM63.9432 22.8729L63.2802 23.5037C63.2292 23.532 63.1783 23.5618 63.1274 23.5915C63.0256 23.6511 62.924 23.7105 62.8227 23.7572C62.3622 23.968 61.894 24.0211 61.4779 24.0211C61.0351 24.0211 60.3409 23.9921 59.6328 23.4756C58.6491 22.7768 58.219 21.5756 58.219 20.5289C58.219 18.3618 59.9684 17.2989 61.3953 17.2989C61.894 17.2989 62.4062 17.4248 62.8227 17.6903C63.5072 18.1469 63.6901 18.7386 63.7902 19.0626L63.7936 19.0738L60.5352 20.4013L59.4681 20.485C59.8136 22.2619 61.0055 23.2954 62.3228 23.2954C62.9808 23.2954 63.4692 23.0787 63.9173 22.8555C63.9173 22.8555 64.0072 22.8083 63.9432 22.8729ZM62.3794 18.9632C62.3794 19.1578 62.2419 19.2415 61.9773 19.3384L59.4541 20.4427C59.4494 20.3567 59.4429 20.2707 59.4366 20.1853V20.1852V20.1851V20.185V20.185V20.1849V20.1848C59.4243 20.0212 59.4122 19.8598 59.4122 19.705C59.4122 18.1948 60.4518 17.7599 61.0055 17.7599C61.7531 17.7599 62.3794 18.4048 62.3794 18.9632ZM67.9384 22.9325V26.4926H67.2373V17.4335H67.9384V18.4653C68.3952 17.7984 69.2298 17.2699 70.1992 17.2699C71.9378 17.2699 73.1089 18.5999 73.1089 20.7053C73.1089 22.7966 71.9378 24.1544 70.1992 24.1544C69.284 24.1544 68.4642 23.6785 67.9384 22.9325ZM70.0809 17.9082C71.5353 17.9082 72.3556 19.1185 72.3556 20.7053C72.3556 22.2946 71.5353 23.5153 70.0809 23.5153C69.1776 23.5153 68.3139 22.7735 67.9384 22.148V19.2482C68.3139 18.6239 69.1776 17.9082 70.0809 17.9082ZM74.0663 14.9321H74.767V23.9912H74.0663V14.9321ZM80.4784 23.3765C80.5043 23.5439 80.5396 23.7443 80.5864 23.9717H81.3944C81.3315 23.7601 81.2843 23.5414 81.2547 23.3223C81.226 23.1036 81.2149 22.8791 81.2149 22.6467V19.4117C81.2149 18.7192 80.9812 18.1894 80.5154 17.8228C80.0492 17.4525 79.4306 17.267 78.6662 17.267C77.8994 17.267 77.2763 17.4554 76.8006 17.8303C76.3229 18.2056 76.0983 18.6401 76.1241 19.1355L76.1389 19.1707H76.8565C76.8565 18.8033 77.0196 18.4984 77.3432 18.2524C77.6698 18.0113 78.0986 17.8875 78.6272 17.8875C79.2055 17.8875 79.6516 18.0229 79.9695 18.2909C80.2862 18.5585 80.4447 18.9275 80.4447 19.3968V20.2116H78.8096C77.933 20.2116 77.2249 20.3938 76.677 20.7604C76.1291 21.1253 75.8543 21.6025 75.8543 22.1902C75.8543 22.7788 76.044 23.244 76.4211 23.5874C76.7994 23.9312 77.3297 24.1006 78.0127 24.1006C78.58 24.1006 78.9936 23.9854 79.429 23.7506C79.8639 23.5174 80.2045 23.2212 80.4447 22.8654C80.4447 23.039 80.4571 23.2096 80.4784 23.3765ZM78.0985 23.4565C78.6941 23.4565 79.1221 23.3223 79.5595 23.0568C79.9941 22.7929 80.2898 22.4487 80.4447 22.032V20.7728H78.8017C78.1741 20.7728 77.6545 20.9128 77.2458 21.1953C76.8363 21.477 76.6289 21.8179 76.6289 22.2143C76.6289 22.5883 76.7603 22.8874 77.0215 23.1139C77.2836 23.343 77.6418 23.4565 78.0985 23.4565ZM83.2025 26.0159C83.0403 26.0159 82.7844 25.9744 82.6345 25.9069L82.5141 26.5593C82.6891 26.6136 82.9881 26.6542 83.2148 26.6542C83.9702 26.6542 84.5202 26.2578 84.8697 25.4335L88.2382 17.4335H87.4451L85.0989 23.1636L82.7298 17.4335H81.9477L84.7095 24.0459L84.1982 25.2144C83.9299 25.839 83.6313 26.0159 83.2025 26.0159Z" fill="white"/>
<path fill-rule="evenodd" clip-rule="evenodd" d="M26.4503 5.15097C25.1503 5.15097 24.1051 6.05591 24.1051 7.46271C24.1051 8.86324 25.1503 9.78073 26.4503 9.78073C27.2209 9.78073 27.8509 9.45258 28.2862 8.96327V7.29487H26.1691V7.98508H27.5089V8.6753C27.308 8.86952 26.9061 9.07712 26.4503 9.07712C25.5663 9.07712 24.9092 8.39361 24.9092 7.46271C24.9092 6.51801 25.5663 5.8483 26.4503 5.8483C26.9459 5.8483 27.3682 6.10907 27.6093 6.44434L28.246 6.07558C27.8906 5.56661 27.3214 5.15097 26.4503 5.15097ZM29.2556 5.22463V9.69367H32.3174V9.00345H30.0391V7.75738H32.2705V7.06716H30.0391V5.91527H32.3174V5.22463H29.2556ZM34.4863 9.69367V5.91527H33.1331V5.22463H36.6235V5.91527H35.2703V9.69367H34.4863ZM40.1316 5.22463H39.3481V9.69367H40.1316V5.22463ZM42.3147 9.69367V5.91527H40.9615V5.22463H44.4519V5.91527H43.0987V9.69367H42.3147ZM49.2672 5.15097C47.9265 5.15097 46.9822 6.12916 46.9822 7.46271C46.9822 8.79585 47.9265 9.77404 49.2672 9.77404C50.5999 9.77404 51.5517 8.79585 51.5517 7.46271C51.5517 6.12916 50.5999 5.15097 49.2672 5.15097ZM50.7477 7.46273C50.7477 6.53811 50.1646 5.84832 49.2672 5.84832C48.3623 5.84832 47.7863 6.53811 47.7863 7.46273C47.7863 8.38022 48.3623 9.07714 49.2672 9.07714C50.1646 9.07714 50.7477 8.38022 50.7477 7.46273ZM53.2507 6.49791L55.5826 9.69367H56.3398V5.22463H55.5558V8.32035L53.2713 5.22463H52.4672V9.69367H53.2507V6.49791Z" fill="white"/>
</g>
<defs>
<linearGradient id="paint0_linear_2_64" x1="7.54028" y1="13.0971" x2="7.54028" y2="27.5877" gradientUnits="userSpaceOnUse">
<stop stop-color="#1E79AF"/>
<stop offset="1" stop-color="#63FFD3"/>
</linearGradient>
<linearGradient id="paint1_linear_2_64" x1="12.093" y1="18.4952" x2="6.54194" y2="25.9366" gradientUnits="userSpaceOnUse">
<stop stop-color="#DC4057"/>
<stop offset="1" stop-color="#9E36BB"/>
</linearGradient>
<linearGradient id="paint2_linear_2_64" x1="15.2196" y1="18.0677" x2="15.2196" y2="22.5163" gradientUnits="userSpaceOnUse">
<stop stop-color="#FF9676"/>
<stop offset="1" stop-color="#FFD074"/>
</linearGradient>
<linearGradient id="paint3_linear_2_64" x1="4.90979" y1="16.0691" x2="10.4438" y2="24.7662" gradientUnits="userSpaceOnUse">
<stop stop-color="#51C6AD"/>
<stop offset="1" stop-color="#D5FFA1"/>
</linearGradient>
<clipPath id="clip0_2_64">
<rect width="94.3158" height="32" fill="white" transform="translate(0.315796)"/>
</clipPath>
<clipPath id="clip1_2_64">
<rect width="13.5172" height="14.531" fill="white" transform="translate(7.3866 13.1941)"/>
</clipPath>
</defs>
</svg>
